# xmcd
#
# Track frame offsets: 
#        150
#        26485
#        45180
#        69397
#        89207
#        105855
#        126127
#        149977
#        169684
#        192550
#
# Disc length: 2806 seconds
#
# Revision: 0
# Processed by: cddbd v1.4PL0 Copyright (c) Steve Scherf et al.
# Submitted via: ExactAudioCopy v0.90a11
#
DISCID=8b0af40a
DTITLE=Ben Decca - Les Slows Inoubliables
DYEAR=1900
DGENRE=
TTITLE0=Son
TTITLE1=Mouto ka oa
TTITLE2=Tika mouto
TTITLE3=Ab Salon
TTITLE4=Eva
TTITLE5=Mota bato
TTITLE6=Se oa nu
TTITLE7=Je n'en peux plus
TTITLE8=Nen lambo
TTITLE9=Kassandra
EXTD=
EXTT0=
EXTT1=
EXTT2=
EXTT3=
EXTT4=
EXTT5=
EXTT6=
EXTT7=
EXTT8=
EXTT9=
PLAYORDER=
